{
    "asset" : {
        "generator" : "Khronos glTF Blender I/O v1.7.33",
        "version" : "2.0"
    },
    "scene" : 0,
    "scenes" : [
        {
            "name" : "Scene",
            "nodes" : [
                0,
                1
            ]
        }
    ],
    "nodes" : [
        {
            "name" : "Empty",
            "scale" : [
                11.226363182067871,
                11.226363182067871,
                11.226363182067871
            ]
        },
        {
            "mesh" : 0,
            "name" : "Plane.010",
            "rotation" : [
                -0.5,
                -0.5,
                -0.5,
                -0.5
            ],
            "scale" : [
                1.9922715425491333,
                1.9922715425491333,
                1.9922715425491333
            ],
            "translation" : [
                -0.3843213617801666,
                -2.5317187309265137,
                -1.9044252634048462
            ]
        }
    ],
    "materials" : [
        {
            "doubleSided" : true,
            "name" : "color.014",
            "pbrMetallicRoughness" : {
                "baseColorFactor" : [
                    0.00856807827949524,
                    0.10946177691221237,
                    0.43965715169906616,
                    1
                ],
                "metallicFactor" : 0,
                "roughnessFactor" : 0.21818199753761292
            }
        }
    ],
    "meshes" : [
        {
            "name" : "Plane.016",
            "primitives" : [
                {
                    "attributes" : {
                        "POSITION" : 0,
                        "NORMAL" : 1,
                        "TEXCOORD_0" : 2
                    },
                    "indices" : 3,
                    "material" : 0
                }
            ]
        }
    ],
    "accessors" : [
        {
            "bufferView" : 0,
            "componentType" : 5126,
            "count" : 5730,
            "max" : [
                3.898611068725586,
                0.16294899582862854,
                1.7148430347442627
            ],
            "min" : [
                -0.6800792217254639,
                -0.3055294156074524,
                -1.710716724395752
            ],
            "type" : "VEC3"
        },
        {
            "bufferView" : 1,
            "componentType" : 5126,
            "count" : 5730,
            "type" : "VEC3"
        },
        {
            "bufferView" : 2,
            "componentType" : 5126,
            "count" : 5730,
            "type" : "VEC2"
        },
        {
            "bufferView" : 3,
            "componentType" : 5123,
            "count" : 31104,
            "type" : "SCALAR"
        }
    ],
    "bufferViews" : [
        {
            "buffer" : 0,
            "byteLength" : 68760,
            "byteOffset" : 0
        },
        {
            "buffer" : 0,
            "byteLength" : 68760,
            "byteOffset" : 68760
        },
        {
            "buffer" : 0,
            "byteLength" : 45840,
            "byteOffset" : 137520
        },
        {
            "buffer" : 0,
            "byteLength" : 62208,
            "byteOffset" : 183360
        }
    ],
    "buffers" : [
        {
            "byteLength" : 245568,
            "uri" : "data:application/octet-stream;base64,"
        }
    ]
}
