{
    "asset" : {
        "generator" : "Khronos glTF Blender I/O v1.7.33",
        "version" : "2.0"
    },
    "scene" : 0,
    "scenes" : [
        {
            "name" : "Scene",
            "nodes" : [
                0,
                1
            ]
        }
    ],
    "nodes" : [
        {
            "name" : "Empty",
            "scale" : [
                11.226363182067871,
                11.226363182067871,
                11.226363182067871
            ]
        },
        {
            "mesh" : 0,
            "name" : "Cube.008",
            "rotation" : [
                0,
                0,
                -0.7071067690849304,
                0.7071068286895752
            ],
            "scale" : [
                -1.0440101623535156,
                3.3018598556518555,
                1.055739164352417
            ],
            "translation" : [
                -0.09430193901062012,
                1.8852238655090332,
                -1.4010045528411865
            ]
        }
    ],
    "materials" : [
        {
            "doubleSided" : true,
            "name" : "color",
            "pbrMetallicRoughness" : {
                "baseColorFactor" : [
                    0.016027050092816353,
                    0.23695266246795654,
                    1,
                    1
                ],
                "metallicFactor" : 0,
                "roughnessFactor" : 0.21818199753761292
            }
        }
    ],
    "meshes" : [
        {
            "name" : "Cube.010",
            "primitives" : [
                {
                    "attributes" : {
                        "POSITION" : 0,
                        "NORMAL" : 1,
                        "TEXCOORD_0" : 2
                    },
                    "indices" : 3,
                    "material" : 0
                }
            ]
        }
    ],
    "accessors" : [
        {
            "bufferView" : 0,
            "componentType" : 5126,
            "count" : 3069,
            "max" : [
                3.47725772857666,
                0.9982296824455261,
                0.9919314384460449
            ],
            "min" : [
                -6.4365339279174805,
                -0.9987456798553467,
                -0.9919931292533875
            ],
            "type" : "VEC3"
        },
        {
            "bufferView" : 1,
            "componentType" : 5126,
            "count" : 3069,
            "type" : "VEC3"
        },
        {
            "bufferView" : 2,
            "componentType" : 5126,
            "count" : 3069,
            "type" : "VEC2"
        },
        {
            "bufferView" : 3,
            "componentType" : 5123,
            "count" : 15552,
            "type" : "SCALAR"
        }
    ],
    "bufferViews" : [
        {
            "buffer" : 0,
            "byteLength" : 36828,
            "byteOffset" : 0
        },
        {
            "buffer" : 0,
            "byteLength" : 36828,
            "byteOffset" : 36828
        },
        {
            "buffer" : 0,
            "byteLength" : 24552,
            "byteOffset" : 73656
        },
        {
            "buffer" : 0,
            "byteLength" : 31104,
            "byteOffset" : 98208
        }
    ],
    "buffers" : [
        {
            "byteLength" : 129312,
            "uri" : "data:application/octet-stream;base64,"
        }
    ]
}
